<svg width="64" height="64" viewBox="0 0 64 64" fill="none" xmlns="http://www.w3.org/2000/svg">
  <rect width="64" height="64" rx="14" fill="#FFFFFF"/>
  <path d="M19 12H37L47 22V45C47 48.3137 44.3137 51 41 51H22C18.6863 51 16 48.3137 16 45V18C16 14.6863 18.6863 12 22 12H19Z" fill="#FFFFFF" stroke="#111111" stroke-width="3.5" stroke-linejoin="round"/>
  <path d="M37 12V20C37 22.7614 39.2386 25 42 25H47" stroke="#111111" stroke-width="3.5" stroke-linejoin="round"/>
  <path d="M24 26H33" stroke="#111111" stroke-width="3.5" stroke-linecap="round"/>
  <path d="M24 33H40" stroke="#111111" stroke-width="3.5" stroke-linecap="round"/>
  <path d="M24 40H35" stroke="#111111" stroke-width="3.5" stroke-linecap="round"/>
  <circle cx="43" cy="40" r="6.5" fill="#111111"/>
  <circle cx="43" cy="40" r="2.4" fill="#FFFFFF"/>
  <path d="M47.5 44.5L53 50" stroke="#111111" stroke-width="3.5" stroke-linecap="round"/>
</svg>
